<svg xmlns="http://www.w3.org/2000/svg" viewBox="0 0 512 512">
  <defs>
    <linearGradient id="bg" x1="0%" y1="0%" x2="100%" y2="100%">
      <stop offset="0%" style="stop-color:#667eea"/>
      <stop offset="100%" style="stop-color:#764ba2"/>
    </linearGradient>
    <linearGradient id="lens" x1="0%" y1="0%" x2="100%" y2="100%">
      <stop offset="0%" style="stop-color:#a78bfa"/>
      <stop offset="100%" style="stop-color:#667eea"/>
    </linearGradient>
  </defs>
  <!-- Background removed for transparency -->
  <!-- Octopus body (simplified) -->
  <ellipse cx="256" cy="200" rx="100" ry="90" fill="url(#bg)" opacity="0.95"/>
  <!-- Eyes -->
  <circle cx="224" cy="185" r="18" fill="#1a1a2e"/>
  <circle cx="288" cy="185" r="18" fill="#1a1a2e"/>
  <circle cx="230" cy="179" r="6" fill="#fff"/>
  <circle cx="294" cy="179" r="6" fill="#fff"/>
  <!-- Tentacles as recording waves -->
  <path d="M156 270 Q176 310 196 270 Q216 230 236 270 Q256 310 276 270 Q296 230 316 270 Q336 310 356 270" fill="none" stroke="url(#lens)" stroke-width="12" stroke-linecap="round" opacity="0.9"/>
  <path d="M136 320 Q166 360 196 320 Q226 280 256 320 Q286 360 316 320 Q346 280 376 320" fill="none" stroke="url(#lens)" stroke-width="10" stroke-linecap="round" opacity="0.7"/>
  <path d="M156 370 Q186 400 216 370 Q246 340 276 370 Q306 400 336 370 Q366 340 396 370" fill="none" stroke="url(#lens)" stroke-width="8" stroke-linecap="round" opacity="0.5"/>
  <!-- Rec dot -->
  <circle cx="400" cy="112" r="28" fill="#f06060"/>
  <circle cx="400" cy="112" r="14" fill="#fff" opacity="0.8"/>
</svg>
